<svg id="Layer_1" xmlns="http://www.w3.org/2000/svg" viewBox="0 0 900 900">
  <style>
    .st0{fill:#A0C2FF;} .st1{fill:#4474E0;}
  </style>
  <path class="st0" d="M0 0h900v900H0z"/>
  <path class="st1" d="M430 544.3L329 571l25.9-101H180v224.7c0 14 11.3 25.3 25.3 25.3H430V544.3zM545.1 470L571 571l-101-26.7V720h224.7c14 0 25.3-11.3 25.3-25.3V470H545.1zm149.6-290H470v175.7L571 329l-25.9 101H720V205.3c0-14-11.3-25.3-25.3-25.3zM430 355.7V180H205.3c-14 0-25.3 11.3-25.3 25.3V430h174.9L329 329l101 26.7z"/>
</svg>
